<svg width="254" height="194" viewBox="0 0 254 194" fill="none" xmlns="http://www.w3.org/2000/svg">
<g filter="url(#filter0_f_757_287611)">
<ellipse cx="124.239" cy="157.444" rx="93.2183" ry="17.9831" fill="#1F88F8" fill-opacity="0.35"/>
</g>
<path d="M125.263 193.338C178.652 193.338 221.932 150.058 221.932 96.6688C221.932 43.2801 178.652 0 125.263 0C71.8741 0 28.594 43.2801 28.594 96.6688C28.594 150.058 71.8741 193.338 125.263 193.338Z" fill="url(#paint0_linear_757_287611)"/>
<g filter="url(#filter1_d_757_287611)">
<path d="M206.239 65.4206L123.401 123.231L40.5621 65.4206L116.394 12.4777C118.451 11.0443 120.897 10.2759 123.404 10.2759C125.911 10.2759 128.357 11.0443 130.414 12.4777L145.54 23.0525L149.501 25.8028L189.38 53.6493L193.581 56.599L206.239 65.4206Z" fill="url(#paint1_linear_757_287611)"/>
</g>
<path d="M109.931 113.832L40.5621 163.158V65.4204L109.931 113.832Z" fill="url(#paint2_linear_757_287611)"/>
<g filter="url(#filter2_f_757_287611)">
<ellipse cx="163.874" cy="63.4911" rx="30.8281" ry="9.90903" fill="#FF4C77" fill-opacity="0.3"/>
</g>
<path d="M136.877 113.832L206.246 163.158V65.4204L136.877 113.832Z" fill="url(#paint3_linear_757_287611)"/>
<path d="M40.5621 163.159L116.305 109.308C118.378 107.832 120.859 107.039 123.404 107.039C125.949 107.039 128.43 107.832 130.503 109.308L206.239 163.159H40.5621Z" fill="url(#paint4_linear_757_287611)"/>
<path d="M162.254 52.6245V50.8993C162.254 50.0184 162.388 49.2721 162.658 48.6603C162.951 48.0241 163.306 47.4735 163.722 47.0086C164.162 46.5192 164.627 46.0909 165.117 45.7239C165.606 45.3324 166.059 44.9531 166.475 44.586C166.915 44.1945 167.27 43.7663 167.539 43.3014C167.833 42.8364 167.98 42.3103 167.98 41.723C167.98 41.4539 167.943 41.148 167.87 40.8054C167.796 40.4628 167.637 40.1325 167.393 39.8144C167.172 39.4718 166.83 39.2026 166.365 39.0069C165.9 38.7866 165.288 38.6765 164.53 38.6765C163.698 38.6765 163.025 38.7989 162.511 39.0436C162.021 39.2883 161.642 39.6064 161.373 39.9979C161.128 40.3649 160.957 40.7565 160.859 41.1725C160.786 41.5884 160.749 41.98 160.749 42.347C160.749 42.5183 160.749 42.6896 160.749 42.8609C160.749 43.0077 160.761 43.1668 160.786 43.3381H155.757C155.733 43.1912 155.696 43.0077 155.647 42.7875C155.622 42.5673 155.61 42.3103 155.61 42.0167C155.61 41.1602 155.733 40.3527 155.977 39.5941C156.246 38.8356 156.626 38.1504 157.115 37.5386C157.629 36.9024 158.265 36.3641 159.024 35.9236C159.782 35.4587 160.651 35.1039 161.63 34.8592C162.609 34.6145 163.698 34.4921 164.897 34.4921C165.924 34.4921 166.879 34.59 167.76 34.7858C168.665 34.9571 169.46 35.2385 170.145 35.63C170.855 35.997 171.455 36.4497 171.944 36.9881C172.433 37.5264 172.813 38.1504 173.082 38.86C173.351 39.5697 173.486 40.3527 173.486 41.2092C173.486 42.2858 173.327 43.2035 173.008 43.962C172.69 44.6961 172.274 45.3446 171.76 45.9074C171.271 46.4458 170.745 46.9229 170.182 47.3389C169.619 47.7549 169.081 48.1709 168.567 48.5869C168.078 48.9784 167.674 49.4066 167.356 49.8716C167.038 50.3365 166.879 50.8993 166.879 51.56V52.6245H162.254ZM161.96 60.1123V54.9736H167.172V60.1123H161.96Z" fill="white"/>
<g filter="url(#filter3_d_757_287611)">
<path d="M49.3149 47.7104C36.6153 53.6511 22.9684 57.308 8.99999 58.5135C10.8874 62.901 24.2981 84.8631 64.1081 102.959C65.1843 103.125 90.0438 91.5602 103.686 83.6296C103.223 84.2919 61.3101 68.8696 49.3149 47.7104Z" fill="url(#paint5_linear_757_287611)"/>
</g>
<path d="M164.827 71.7465C180.092 71.7465 192.467 59.3715 192.467 44.1061C192.467 28.8408 180.092 16.4658 164.827 16.4658C149.561 16.4658 137.186 28.8408 137.186 44.1061C137.186 59.3715 149.561 71.7465 164.827 71.7465Z" fill="url(#paint6_linear_757_287611)"/>
<path d="M160.004 58.6997C160.004 58.1362 160.103 57.6107 160.301 57.1232C160.515 56.6206 160.804 56.1865 161.17 55.8209C161.535 55.4401 161.962 55.1431 162.449 54.9298C162.952 54.7166 163.492 54.61 164.071 54.61C164.62 54.61 165.137 54.7166 165.625 54.9298C166.128 55.1431 166.562 55.4401 166.927 55.8209C167.293 56.1865 167.582 56.6206 167.795 57.1232C168.009 57.6107 168.115 58.1362 168.115 58.6997C168.115 59.2633 168.009 59.7964 167.795 60.2991C167.582 60.7865 167.293 61.213 166.927 61.5786C166.562 61.9442 166.128 62.2336 165.625 62.4468C165.137 62.6601 164.62 62.7667 164.071 62.7667C163.492 62.7667 162.952 62.6601 162.449 62.4468C161.962 62.2336 161.535 61.9442 161.17 61.5786C160.804 61.213 160.515 60.7865 160.301 60.2991C160.103 59.7964 160.004 59.2633 160.004 58.6997ZM160.004 25.9814H168.435L167.498 50.3602H160.941L160.004 25.9814Z" fill="white"/>
<path d="M50.2977 58.6295C49.7132 58.224 48.9731 58.1146 48.2963 58.3335L26.077 65.5221C25.281 65.7796 24.9974 66.76 25.533 67.4027C25.9643 67.9202 26.6702 68.1179 27.3075 67.8996L50.0937 60.095C50.7367 59.8747 50.8561 59.0169 50.2977 58.6295Z" fill="#C9DFFF"/>
<path d="M49.9125 67.483C49.3489 66.9538 48.54 66.7775 47.8074 67.0241L32.4253 72.2008C31.747 72.4291 31.5075 73.266 31.9623 73.8185C32.3339 74.2699 32.9463 74.444 33.4997 74.2555L49.6362 68.7612C50.181 68.5758 50.332 67.8769 49.9125 67.483Z" fill="#C9DFFF"/>
<path d="M58.1685 71.8673C57.5804 71.3964 56.7894 71.266 56.0813 71.5234L38.3631 77.9631C37.6677 78.2159 37.4584 79.098 37.9662 79.6362C38.3546 80.048 38.9511 80.1885 39.4826 79.9935L57.9482 73.2172C58.5222 73.0066 58.6458 72.2496 58.1685 71.8673Z" fill="#C9DFFF"/>
<path d="M64.363 85.1592C63.8183 84.5571 62.9599 84.3512 62.2013 84.6407L52.0753 88.5048C51.4535 88.7421 51.2294 89.5069 51.6247 90.0423C51.9951 90.544 52.6555 90.7358 53.2371 90.5106L64.0907 86.3069C64.5588 86.1256 64.6997 85.5314 64.363 85.1592Z" fill="#C9DFFF"/>
<g filter="url(#filter4_d_757_287611)">
<path d="M196.116 78.3379C211.515 85.5412 228.062 89.9754 245 91.4373C242.711 96.7573 226.45 123.388 178.178 145.33C176.873 145.531 146.73 131.508 130.187 121.892C130.749 122.695 181.571 103.995 196.116 78.3379Z" fill="url(#paint7_linear_757_287611)"/>
</g>
<path d="M194.924 91.5784C195.633 91.0868 196.531 90.9541 197.351 91.2196L224.293 99.9362C225.258 100.248 225.602 101.437 224.953 102.216C224.43 102.844 223.574 103.084 222.801 102.819L195.172 93.3554C194.392 93.0884 194.247 92.0482 194.924 91.5784Z" fill="#C9DFFF"/>
<path d="M187.381 98.7537C188.064 98.1121 189.045 97.8982 189.934 98.1972L208.585 104.474C209.408 104.751 209.698 105.766 209.147 106.436C208.696 106.983 207.954 107.194 207.282 106.966L187.716 100.304C187.055 100.079 186.872 99.2313 187.381 98.7537Z" fill="#C9DFFF"/>
<path d="M179.629 104.71C180.342 104.139 181.301 103.981 182.159 104.293L203.644 112.101C204.487 112.408 204.741 113.478 204.125 114.13C203.654 114.629 202.931 114.8 202.286 114.563L179.896 106.347C179.2 106.091 179.05 105.173 179.629 104.71Z" fill="#C9DFFF"/>
<path d="M162.185 116.627C162.845 115.897 163.886 115.647 164.806 115.998L177.084 120.684C177.838 120.971 178.11 121.899 177.631 122.548C177.182 123.156 176.381 123.389 175.676 123.116L162.515 118.018C161.947 117.799 161.776 117.078 162.185 116.627Z" fill="#C9DFFF"/>
<path d="M170.2 110.263C170.926 109.807 171.823 109.712 172.629 110.007L200.92 120.351C201.824 120.682 202.043 121.86 201.318 122.494C200.838 122.913 200.168 123.036 199.571 122.816L170.387 112.066C169.6 111.776 169.489 110.708 170.2 110.263Z" fill="#C9DFFF"/>
<path d="M70.4909 74.7722C69.8915 74.3962 69.152 74.3184 68.4875 74.5614L45.156 83.0921C44.4103 83.3648 44.2296 84.337 44.8276 84.8593C45.2232 85.2048 45.7757 85.3068 46.2685 85.1252L70.3363 76.2592C70.9853 76.0201 71.0769 75.1398 70.4909 74.7722Z" fill="#C9DFFF"/>
<path d="M205.345 22.7537C205.345 24.9833 203.538 26.7908 201.308 26.7908C199.079 26.7908 197.271 24.9833 197.271 22.7537C197.271 20.5242 199.079 18.7167 201.308 18.7167C203.538 18.7167 205.345 20.5242 205.345 22.7537Z" stroke="url(#paint8_linear_757_287611)" stroke-width="2.20201"/>
<circle cx="58.1783" cy="172.491" r="4.03701" stroke="url(#paint9_linear_757_287611)" stroke-width="2.20201"/>
<circle cx="182.225" cy="180.564" r="4.03701" stroke="url(#paint10_linear_757_287611)" stroke-width="2.20201"/>
<path d="M71.8797 26.9117C72.3137 25.1141 74.8706 25.1141 75.3045 26.9117L76.765 32.962C76.9201 33.6044 77.4217 34.1059 78.0641 34.261L84.1143 35.7215C85.912 36.1555 85.912 38.7124 84.1143 39.1463L78.0641 40.6068C77.4217 40.7619 76.9201 41.2635 76.765 41.9059L75.3045 47.9561C74.8706 49.7538 72.3137 49.7538 71.8797 47.9561L70.4192 41.9059C70.2641 41.2635 69.7626 40.7619 69.1202 40.6068L63.0699 39.1463C61.2723 38.7124 61.2723 36.1554 63.0699 35.7215L69.1202 34.261C69.7626 34.1059 70.2641 33.6044 70.4192 32.962L71.8797 26.9117Z" fill="url(#paint11_linear_757_287611)"/>
<path d="M218.955 154.582C219.389 152.784 221.946 152.784 222.38 154.582L223.84 160.632C223.995 161.275 224.497 161.776 225.139 161.931L231.19 163.392C232.987 163.826 232.987 166.383 231.19 166.817L225.139 168.277C224.497 168.432 223.995 168.934 223.84 169.576L222.38 175.627C221.946 177.424 219.389 177.424 218.955 175.627L217.495 169.576C217.339 168.934 216.838 168.432 216.195 168.277L210.145 166.817C208.348 166.383 208.348 163.826 210.145 163.392L216.195 161.931C216.838 161.776 217.339 161.275 217.495 160.632L218.955 154.582Z" fill="url(#paint12_linear_757_287611)"/>
<path d="M31.3193 140.421C32.4351 140.242 33.326 141.338 32.9228 142.394L30.2014 149.52C29.7982 150.576 28.4034 150.799 27.6907 149.922L22.8801 144.002C22.1674 143.125 22.6714 141.806 23.7873 141.627L31.3193 140.421Z" fill="url(#paint13_linear_757_287611)"/>
<path d="M221.87 67.779C221.591 66.684 222.602 65.6973 223.689 66.003L231.033 68.0667C232.121 68.3724 232.47 69.7412 231.661 70.5305L226.202 75.8584C225.394 76.6477 224.034 76.2655 223.754 75.1705L221.87 67.779Z" fill="url(#paint14_linear_757_287611)"/>
<defs>
<filter id="filter0_f_757_287611" x="12.6702" y="121.11" width="223.137" height="72.6664" filterUnits="userSpaceOnUse" color-interpolation-filters="sRGB">
<feFlood flood-opacity="0" result="BackgroundImageFix"/>
<feBlend mode="normal" in="SourceGraphic" in2="BackgroundImageFix" result="shape"/>
<feGaussianBlur stdDeviation="9.17503" result="effect1_foregroundBlur_757_287611"/>
</filter>
<filter id="filter1_d_757_287611" x="37.6261" y="10.2759" width="171.549" height="118.828" filterUnits="userSpaceOnUse" color-interpolation-filters="sRGB">
<feFlood flood-opacity="0" result="BackgroundImageFix"/>
<feColorMatrix in="SourceAlpha" type="matrix" values="0 0 0 0 0 0 0 0 0 0 0 0 0 0 0 0 0 0 127 0" result="hardAlpha"/>
<feOffset dy="2.93601"/>
<feGaussianBlur stdDeviation="1.468"/>
<feComposite in2="hardAlpha" operator="out"/>
<feColorMatrix type="matrix" values="0 0 0 0 0 0 0 0 0 0 0 0 0 0 0 0 0 0 0.25 0"/>
<feBlend mode="normal" in2="BackgroundImageFix" result="effect1_dropShadow_757_287611"/>
<feBlend mode="normal" in="SourceGraphic" in2="effect1_dropShadow_757_287611" result="shape"/>
</filter>
<filter id="filter2_f_757_287611" x="114.696" y="35.232" width="98.3562" height="56.518" filterUnits="userSpaceOnUse" color-interpolation-filters="sRGB">
<feFlood flood-opacity="0" result="BackgroundImageFix"/>
<feBlend mode="normal" in="SourceGraphic" in2="BackgroundImageFix" result="shape"/>
<feGaussianBlur stdDeviation="9.17503" result="effect1_foregroundBlur_757_287611"/>
</filter>
<filter id="filter3_d_757_287611" x="0.191974" y="41.8384" width="112.302" height="72.8665" filterUnits="userSpaceOnUse" color-interpolation-filters="sRGB">
<feFlood flood-opacity="0" result="BackgroundImageFix"/>
<feColorMatrix in="SourceAlpha" type="matrix" values="0 0 0 0 0 0 0 0 0 0 0 0 0 0 0 0 0 0 127 0" result="hardAlpha"/>
<feOffset dy="2.93601"/>
<feGaussianBlur stdDeviation="4.40401"/>
<feComposite in2="hardAlpha" operator="out"/>
<feColorMatrix type="matrix" values="0 0 0 0 0.0196078 0 0 0 0 0.168627 0 0 0 0 0.396078 0 0 0 0.15 0"/>
<feBlend mode="normal" in2="BackgroundImageFix" result="effect1_dropShadow_757_287611"/>
<feBlend mode="normal" in="SourceGraphic" in2="effect1_dropShadow_757_287611" result="shape"/>
</filter>
<filter id="filter4_d_757_287611" x="113.259" y="76.8699" width="139.769" height="91.9507" filterUnits="userSpaceOnUse" color-interpolation-filters="sRGB">
<feFlood flood-opacity="0" result="BackgroundImageFix"/>
<feColorMatrix in="SourceAlpha" type="matrix" values="0 0 0 0 0 0 0 0 0 0 0 0 0 0 0 0 0 0 127 0" result="hardAlpha"/>
<feOffset dx="-4.45011" dy="11.01"/>
<feGaussianBlur stdDeviation="6.23902"/>
<feComposite in2="hardAlpha" operator="out"/>
<feColorMatrix type="matrix" values="0 0 0 0 0.021441 0 0 0 0 0.168056 0 0 0 0 0.395833 0 0 0 0.15 0"/>
<feBlend mode="normal" in2="BackgroundImageFix" result="effect1_dropShadow_757_287611"/>
<feBlend mode="normal" in="SourceGraphic" in2="effect1_dropShadow_757_287611" result="shape"/>
</filter>
<linearGradient id="paint0_linear_757_287611" x1="124.518" y1="-31.4777" x2="126.498" y2="308.009" gradientUnits="userSpaceOnUse">
<stop stop-color="#CAE0FF" stop-opacity="0"/>
<stop offset="1" stop-color="#BCD8FF"/>
</linearGradient>
<linearGradient id="paint1_linear_757_287611" x1="123.401" y1="10.2759" x2="123.401" y2="123.231" gradientUnits="userSpaceOnUse">
<stop stop-color="#EDF4FF"/>
<stop offset="1" stop-color="#ABCCFF"/>
</linearGradient>
<linearGradient id="paint2_linear_757_287611" x1="75.2466" y1="65.4204" x2="75.2466" y2="163.158" gradientUnits="userSpaceOnUse">
<stop stop-color="#ABCCFF"/>
<stop offset="1" stop-color="#70A8FF"/>
</linearGradient>
<linearGradient id="paint3_linear_757_287611" x1="171.561" y1="65.4204" x2="171.561" y2="163.158" gradientUnits="userSpaceOnUse">
<stop stop-color="#ABCCFF"/>
<stop offset="1" stop-color="#70A8FF"/>
</linearGradient>
<linearGradient id="paint4_linear_757_287611" x1="123.401" y1="107.039" x2="123.401" y2="163.159" gradientUnits="userSpaceOnUse">
<stop stop-color="#70A8FF"/>
<stop offset="1" stop-color="#5597FD"/>
</linearGradient>
<linearGradient id="paint5_linear_757_287611" x1="19.276" y1="72.2995" x2="81.2992" y2="60.1885" gradientUnits="userSpaceOnUse">
<stop stop-color="#C6DDFF"/>
<stop offset="1" stop-color="white"/>
</linearGradient>
<linearGradient id="paint6_linear_757_287611" x1="137.451" y1="20.1852" x2="192.501" y2="71.9323" gradientUnits="userSpaceOnUse">
<stop stop-color="#FF698D"/>
<stop offset="1" stop-color="#FF3868"/>
</linearGradient>
<linearGradient id="paint7_linear_757_287611" x1="232.54" y1="108.154" x2="157.333" y2="93.4682" gradientUnits="userSpaceOnUse">
<stop stop-color="#C6DDFF"/>
<stop offset="1" stop-color="white"/>
</linearGradient>
<linearGradient id="paint8_linear_757_287611" x1="194.993" y1="19.5425" x2="211.049" y2="33.4579" gradientUnits="userSpaceOnUse">
<stop stop-color="#94BFFF"/>
<stop offset="1" stop-color="#4C94FE"/>
</linearGradient>
<linearGradient id="paint9_linear_757_287611" x1="51.8628" y1="169.279" x2="67.9191" y2="183.195" gradientUnits="userSpaceOnUse">
<stop stop-color="#94BFFF"/>
<stop offset="1" stop-color="#4C94FE"/>
</linearGradient>
<linearGradient id="paint10_linear_757_287611" x1="175.909" y1="177.353" x2="191.966" y2="191.268" gradientUnits="userSpaceOnUse">
<stop stop-color="#94BFFF"/>
<stop offset="1" stop-color="#4C94FE"/>
</linearGradient>
<linearGradient id="paint11_linear_757_287611" x1="73.5921" y1="19.8179" x2="73.5921" y2="55.05" gradientUnits="userSpaceOnUse">
<stop stop-color="#70A8FF"/>
<stop offset="1" stop-color="#5597FD"/>
</linearGradient>
<linearGradient id="paint12_linear_757_287611" x1="220.667" y1="147.488" x2="220.667" y2="182.72" gradientUnits="userSpaceOnUse">
<stop stop-color="#70A8FF"/>
<stop offset="1" stop-color="#5597FD"/>
</linearGradient>
<linearGradient id="paint13_linear_757_287611" x1="33.8299" y1="140.019" x2="22.4373" y2="149.277" gradientUnits="userSpaceOnUse">
<stop stop-color="#70A8FF"/>
<stop offset="1" stop-color="#5597FD"/>
</linearGradient>
<linearGradient id="paint14_linear_757_287611" x1="221.242" y1="65.3152" x2="231.495" y2="75.8209" gradientUnits="userSpaceOnUse">
<stop stop-color="#70A8FF"/>
<stop offset="1" stop-color="#5597FD"/>
</linearGradient>
</defs>
</svg>
